<svg width="187" height="181" viewBox="0 0 187 181" fill="none" xmlns="http://www.w3.org/2000/svg">
<rect x="96.1875" y="23.7969" width="69.3821" height="94.0956" rx="34.6911" transform="rotate(34 96.1875 23.7969)" fill="#99D9BC"/>
<path d="M102.676 115.32L125.613 145.142M111.393 114.311L130.256 140.812" stroke="black" stroke-width="0.950449" stroke-linecap="round"/>
<path d="M66.2389 93.0388L29.9961 82.9437M63.909 84.5788L32.2721 77.0164" stroke="black" stroke-width="0.950449" stroke-linecap="round"/>
<path d="M125.588 145.197C125.455 145.394 124.179 148.622 124.367 150.471C124.555 152.32 125.083 152.389 125.546 152.127C126.01 151.866 127.808 148.774 127.808 148.774L129.743 150.586L131.647 152.444C133.383 154.325 134.16 154.053 136.129 153.458C138.588 152.536 138.326 151.675 138.589 150.237C138.852 148.8 137.643 147.81 136.694 146.663C135.745 145.517 130.259 140.825 130.259 140.825M133.585 148.288L137.786 152.279M132.125 149.606L136.262 153.261M135.5 147.582L138.52 150.765" stroke="black" stroke-width="0.950449" stroke-linecap="round"/>
<path d="M29.94 82.9584C29.8069 83.1557 27.2919 85.5481 25.5072 86.0664C23.7225 86.5848 23.461 86.1214 23.5299 85.5938C23.5987 85.0662 25.7919 82.2402 25.7919 82.2402L23.3871 81.1248L20.951 80.0557C18.5567 79.1513 18.5172 78.3287 18.3317 76.2798C18.2654 73.6547 19.1624 73.5754 20.3964 72.7931C21.6304 72.0109 23.0017 72.7603 24.4199 73.2108C25.8381 73.6613 32.2434 76.9905 32.2434 76.9905M24.0788 76.7024L18.8045 74.3024M23.4031 78.5492L18.4649 76.0825M24.015 74.6622L19.9327 73.0548" stroke="black" stroke-width="0.950449" stroke-linecap="round"/>
<path d="M77.6167 90.3845C80.6736 89.2519 85.2725 92.6317 85.4962 95.6993" stroke="black" stroke-width="0.712837" stroke-linecap="round"/>
<path d="M87.1174 108.229C83.8188 108.87 80.5339 106.942 79.4347 103.047" stroke="black" stroke-width="0.712837" stroke-linecap="round"/>
<path d="M91.7809 99.9398C94.4675 99.356 99.0986 102.688 99.6604 105.255" stroke="black" stroke-width="0.712837" stroke-linecap="round"/>
<path d="M63.2391 133.418C58.4472 127.698 60.3411 123.915 65.5014 124.728C67.7891 125.717 69.053 126.308 71.1444 127.691C72.603 128.612 72.9034 129.405 72.6053 131.271L68.7785 140.878L67.2456 142.24L61.8745 139.615L63.2391 133.418Z" fill="#C1C1C1"/>
<path d="M65.5014 124.728C60.3411 123.915 58.4472 127.698 63.2391 133.418L61.8745 139.615M65.5014 124.728C66.5607 125.371 66.9788 125.842 67.2022 127.018L63.5725 138.506M65.5014 124.728C67.7891 125.717 69.053 126.308 71.1444 127.691C72.603 128.612 72.9034 129.405 72.6053 131.271L68.7785 140.878M63.5725 138.506L68.7785 140.878M63.5725 138.506L61.8745 139.615M68.7785 140.878L67.2456 142.24L61.8745 139.615M65.0558 126.256C62.2261 125.179 60.4927 127.998 63.3059 131.468M71.0881 132.261L67.1344 130.308L66.6872 131.991L70.6896 133.861L71.0881 132.261Z" stroke="black" stroke-width="0.475225"/>
<path d="M68.1965 125.876C69.2747 124.678 69.863 124.256 70.8439 124.715C71.4833 125.224 71.5727 125.67 70.6891 127.086" stroke="black" stroke-width="0.475225"/>
<path d="M56.6636 92.5743C58.0021 105.641 61.0289 112.83 70.1945 125.203C85.4244 129.241 93.0764 128.212 106.053 123.881" stroke="black" stroke-width="0.475225"/>
<path d="M80.6288 48.6288C89.5582 35.3904 108.738 34.5246 120.951 40.3639C124.447 36.8376 129.824 40.4638 127.942 44.9107C137.573 53.1899 144.138 69.6253 135.785 85.8324L143.683 91.1594C138.744 96.2392 132.2 94.9807 114.039 84.5769C98.2205 73.1847 92.6658 67.2074 94.5261 58.0027L80.6288 48.6288Z" fill="#C1C1C1"/>
<path d="M135.785 85.8324C144.138 69.6253 137.573 53.1899 127.942 44.9107M135.785 85.8324L94.5261 58.0027M135.785 85.8324L143.683 91.1594C138.744 96.2392 132.2 94.9807 114.039 84.5769C98.2205 73.1847 92.6658 67.2074 94.5261 58.0027M120.951 40.3639C108.738 34.5246 89.5582 35.3904 80.6288 48.6288L94.5261 58.0027M120.951 40.3639C123.473 41.5695 125.839 43.103 127.942 44.9107M120.951 40.3639C124.447 36.8376 129.824 40.4638 127.942 44.9107" stroke="black" stroke-width="0.475225"/>
<path d="M125.258 42.8729C111.594 35.5627 94.1639 32.1244 80.6727 48.6021L135.806 85.8394C142.751 68.3564 141.162 56.9413 125.258 42.8729Z" fill="white" stroke="black" stroke-width="0.475225"/>
<path d="M106.979 53.3694C106.588 53.1058 106.302 52.8146 106.119 52.4959C105.944 52.1758 105.87 51.8415 105.897 51.493C105.927 51.1402 106.054 50.7796 106.278 50.411C106.39 50.2359 106.513 50.0496 106.646 49.8521C106.779 49.6546 106.909 49.4669 107.035 49.289C107.29 48.9473 107.575 48.6965 107.891 48.5365C108.211 48.3794 108.551 48.3243 108.91 48.3712C109.277 48.4168 109.654 48.57 110.04 48.8308C110.326 49.0235 110.557 49.2342 110.733 49.4629C110.909 49.6917 111.031 49.9271 111.1 50.1693C111.172 50.4073 111.193 50.6443 111.162 50.8803C111.131 51.1164 111.048 51.3388 110.913 51.5475C110.892 51.5882 110.858 51.6112 110.812 51.6165C110.77 51.6248 110.73 51.6161 110.692 51.5906L110.093 51.1867C110.047 51.1555 110.016 51.1195 110.001 51.0786C109.988 51.0336 109.994 50.9795 110.019 50.9163C110.138 50.5936 110.15 50.3265 110.054 50.1151C109.959 49.9037 109.789 49.7158 109.545 49.5514C109.264 49.3615 108.985 49.2897 108.709 49.336C108.436 49.3781 108.171 49.5756 107.915 49.9285C107.67 50.2646 107.432 50.6176 107.201 50.9875C106.969 51.3575 106.884 51.679 106.944 51.952C107.008 52.2209 107.18 52.4503 107.462 52.6402C107.705 52.8046 107.943 52.8917 108.175 52.9014C108.41 52.9068 108.653 52.7957 108.905 52.5679C108.957 52.5176 109.005 52.4918 109.048 52.4906C109.092 52.4895 109.137 52.5045 109.183 52.5356L109.782 52.9396C109.82 52.9651 109.843 52.999 109.851 53.0412C109.863 53.0862 109.855 53.1263 109.825 53.1612C109.682 53.3643 109.507 53.5244 109.299 53.6413C109.092 53.7583 108.863 53.8302 108.613 53.8569C108.365 53.8795 108.103 53.8521 107.825 53.7747C107.547 53.6972 107.265 53.5621 106.979 53.3694ZM110.96 56.0548C110.624 55.8281 110.38 55.5779 110.228 55.3043C110.081 55.0336 110.018 54.75 110.041 54.4534C110.068 54.1598 110.169 53.8644 110.345 53.5673C110.392 53.4888 110.452 53.3949 110.526 53.2856C110.6 53.1764 110.664 53.0853 110.72 53.0125C110.932 52.7339 111.17 52.5306 111.434 52.4027C111.704 52.2734 111.993 52.2265 112.299 52.2619C112.609 52.3001 112.929 52.4298 113.256 52.6509C113.584 52.872 113.822 53.1179 113.969 53.3886C114.121 53.6622 114.186 53.9472 114.163 54.2438C114.147 54.5389 114.05 54.8372 113.871 55.1385C113.825 55.2169 113.764 55.3108 113.691 55.4201C113.617 55.5293 113.552 55.6204 113.497 55.6932C113.288 55.9676 113.05 56.1709 112.783 56.303C112.521 56.438 112.235 56.4863 111.924 56.4481C111.618 56.4127 111.297 56.2816 110.96 56.0548ZM111.381 55.4308C111.604 55.581 111.823 55.6279 112.038 55.5714C112.257 55.5107 112.464 55.3481 112.661 55.0834C112.708 55.0232 112.765 54.9427 112.833 54.8418C112.901 54.741 112.954 54.6576 112.993 54.5917C113.162 54.3143 113.233 54.063 113.208 53.8379C113.182 53.6128 113.058 53.4252 112.835 53.2749C112.613 53.1247 112.392 53.0799 112.174 53.1406C111.956 53.2013 111.75 53.3618 111.556 53.6223C111.509 53.6825 111.451 53.763 111.383 53.8639C111.315 53.9648 111.262 54.0481 111.224 54.114C111.052 54.3957 110.979 54.649 111.005 54.8741C111.033 55.095 111.159 55.2806 111.381 55.4308ZM114.193 58.2352C113.974 58.0878 113.805 57.9125 113.685 57.7094C113.568 57.5021 113.506 57.2916 113.497 57.0779C113.495 56.8628 113.555 56.6648 113.677 56.4841C113.876 56.19 114.151 56.0361 114.502 56.0225C114.861 56.0076 115.255 56.1025 115.686 56.3073L116.634 56.7637L116.724 56.6314C116.843 56.4549 116.891 56.2885 116.868 56.1323C116.845 55.9762 116.726 55.8258 116.512 55.6812C116.36 55.5792 116.215 55.5271 116.076 55.5249C115.944 55.5214 115.821 55.5545 115.706 55.6241C115.636 55.6561 115.569 55.6508 115.506 55.6083L115.008 55.2724C114.962 55.2412 114.935 55.2045 114.926 55.1623C114.922 55.1229 114.935 55.0822 114.963 55.0402C115.013 54.9758 115.095 54.9123 115.211 54.8496C115.326 54.787 115.469 54.7484 115.637 54.7338C115.809 54.7151 116.002 54.7323 116.217 54.7855C116.432 54.8386 116.661 54.9474 116.905 55.1118C117.17 55.2904 117.37 55.4743 117.505 55.6634C117.647 55.8512 117.736 56.0365 117.772 56.2195C117.808 56.4024 117.801 56.5845 117.752 56.7656C117.703 56.9467 117.624 57.1192 117.513 57.2831L116.178 59.2624C116.15 59.3044 116.111 59.3302 116.062 59.3398C116.012 59.3494 115.967 59.34 115.925 59.3117L115.414 58.9673C115.368 58.9361 115.34 58.8959 115.33 58.8466C115.325 58.8002 115.337 58.756 115.365 58.7139L115.531 58.4681C115.422 58.5111 115.298 58.5371 115.157 58.5462C115.019 58.5511 114.867 58.5313 114.702 58.4868C114.543 58.441 114.374 58.3571 114.193 58.2352ZM114.811 57.7809C114.958 57.8801 115.112 57.9379 115.272 57.9542C115.436 57.9734 115.596 57.9405 115.751 57.8556C115.913 57.7693 116.063 57.6253 116.199 57.4236L116.288 57.2912L115.589 56.9669C115.316 56.8375 115.09 56.7737 114.911 56.7755C114.733 56.7774 114.602 56.8392 114.52 56.9611C114.458 57.0535 114.431 57.1518 114.441 57.2559C114.457 57.3586 114.498 57.4566 114.564 57.5497C114.632 57.6386 114.714 57.7157 114.811 57.7809ZM118.261 60.9789C117.958 60.7748 117.729 60.5381 117.575 60.2687C117.424 60.0022 117.356 59.7178 117.371 59.4156C117.392 59.112 117.5 58.8026 117.694 58.4873C117.732 58.4215 117.786 58.3381 117.854 58.2372C117.924 58.1322 117.985 58.0474 118.034 57.983C118.254 57.6848 118.499 57.471 118.769 57.3417C119.047 57.211 119.338 57.1655 119.641 57.2051C119.949 57.2476 120.254 57.3708 120.557 57.5749C120.826 57.7563 121.029 57.9486 121.167 58.1518C121.305 58.355 121.397 58.5545 121.442 58.7501C121.488 58.9458 121.497 59.1265 121.471 59.2923C121.452 59.4567 121.41 59.5907 121.346 59.6944C121.319 59.7435 121.279 59.7714 121.226 59.7781C121.179 59.7835 121.135 59.772 121.093 59.7436L120.538 59.3695C120.496 59.3411 120.47 59.3079 120.459 59.2699C120.452 59.2347 120.452 59.189 120.46 59.1328C120.51 58.9222 120.505 58.7479 120.446 58.6098C120.393 58.4703 120.287 58.3467 120.127 58.239C119.917 58.0973 119.703 58.0511 119.487 58.1006C119.277 58.1486 119.071 58.3127 118.87 58.5928C118.754 58.7468 118.655 58.8939 118.573 59.0341C118.385 59.3297 118.309 59.5838 118.343 59.7962C118.381 60.0116 118.505 60.1901 118.715 60.3318C118.879 60.4424 119.034 60.498 119.18 60.4988C119.33 60.4954 119.492 60.4309 119.669 60.3053C119.718 60.2775 119.76 60.2601 119.796 60.2533C119.835 60.2493 119.876 60.2615 119.918 60.2898L120.472 60.664C120.514 60.6923 120.54 60.7311 120.55 60.7804C120.566 60.8283 120.557 60.8739 120.522 60.9173C120.466 60.9901 120.387 61.0621 120.284 61.1332C120.188 61.203 120.066 61.2614 119.918 61.3084C119.778 61.354 119.62 61.3792 119.446 61.3839C119.274 61.3844 119.087 61.3531 118.885 61.2902C118.687 61.23 118.479 61.1263 118.261 60.9789ZM120.644 62.4945C120.602 62.4662 120.576 62.4274 120.566 62.3781C120.557 62.3289 120.566 62.2832 120.594 62.2412L123.409 58.0682C123.437 58.0261 123.476 58.0003 123.525 57.9908C123.575 57.9812 123.62 57.9906 123.662 58.0189L124.223 58.3973C124.27 58.4285 124.295 58.4673 124.301 58.5137C124.31 58.563 124.301 58.6086 124.273 58.6507L123.303 60.0879C123.507 60.03 123.72 60.0142 123.94 60.0407C124.161 60.0672 124.391 60.1613 124.631 60.3228C124.887 60.4958 125.07 60.7048 125.18 60.95C125.296 61.1939 125.337 61.4563 125.3 61.7373C125.263 62.0183 125.146 62.3059 124.947 62.6L123.752 64.3714C123.724 64.4134 123.685 64.4392 123.636 64.4488C123.587 64.4584 123.541 64.449 123.499 64.4206L122.932 64.038C122.89 64.0096 122.864 63.9708 122.854 63.9215C122.845 63.8723 122.854 63.8266 122.883 63.7846L124.052 62.0511C124.216 61.8074 124.284 61.5751 124.256 61.3542C124.232 61.1361 124.106 60.9506 123.879 60.7975C123.661 60.6501 123.438 60.6004 123.209 60.6484C122.986 60.6992 122.792 60.8464 122.627 61.0902L121.458 62.8237C121.43 62.8657 121.391 62.8915 121.341 62.9011C121.296 62.9135 121.251 62.9041 121.205 62.8729L120.644 62.4945Z" fill="#0CA15E"/>
<ellipse cx="74.8087" cy="94.5203" rx="2.85132" ry="1.66331" transform="rotate(34 74.8087 94.5203)" fill="#C4FED4"/>
<ellipse cx="96.5197" cy="109.169" rx="2.85132" ry="1.66331" transform="rotate(34 96.5197 109.169)" fill="#C4FED4"/>
</svg>
