<svg width="40" height="40" viewBox="0 0 40 40" fill="none" xmlns="http://www.w3.org/2000/svg">
<path d="M8.78728 11.4979C7.56227 17.7808 3.26654 17.7808 0.812877 17.7808C-0.659321 18.2852 0.199461 18.8273 0.812877 19.0352L0.814 19.0354C6.94704 19.6635 6.95078 19.6639 8.7891 25.9464C11.858 34.1142 13.8991 28.4596 14.9214 25.9464C17.3751 17.1504 22.1043 22.1767 22.8958 28.4596C25.3495 47.9366 29.6434 39.1406 30.8703 28.4596C32.0971 17.7787 38.2312 20.2918 39.4581 19.6635C40.4395 19.1609 39.867 18.6164 39.4581 18.407C34.5508 17.7809 31.9355 17.7808 30.8703 10.871C27.1897 -13.0041 22.2824 9.61439 22.2824 11.4979C22.2824 13.3814 17.9885 22.8072 14.9214 11.4979C12.4678 2.45053 9.56346 7.51702 8.78728 11.4979Z" fill="white"/>
</svg>
